<svg height="48px" version="1.1" viewBox="0 0 48 48" width="48px" xmlns="http://www.w3.org/2000/svg" xmlns:xlink="http://www.w3.org/1999/xlink"><title></title><desc></desc><g fill="none" fill-rule="evenodd" id="Page-1" stroke="none" stroke-width="1"><g id="Artboard-Copy" transform="translate(-347.000000, -9.000000)"><path d="M352.377,27.8345 C352.631,28.6105 353.066,29.3245 353.676,29.9645 C354.313,30.6365 355.15,31.1585 356.19,31.5325 C357.225,31.9055 358.559,32.0975 360.205,32.0975 L362.438,32.0975 C362.17,34.8405 361.191,37.1775 359.502,39.1095 C357.813,41.0375 355.469,42.7305 352.475,44.1845 L354.289,46.9995 C358.234,45.3205 361.606,42.8655 364.406,39.6195 C367.209,36.3735 368.602,33.1555 368.602,29.9645 C368.602,26.5365 367.795,23.8485 366.164,21.9065 C364.533,19.9655 362.199,19.0015 359.158,19.0015 C357.234,19.0015 355.557,19.6415 354.135,20.9265 C352.711,22.2115 352,23.7145 352,25.4295 C352,26.2535 352.127,27.0585 352.377,27.8345 M372.775,27.8345 C373.027,28.6105 373.465,29.3245 374.072,29.9645 C374.711,30.6365 375.549,31.1585 376.584,31.5325 C377.623,31.9055 378.957,32.0975 380.602,32.0975 L382.832,32.0975 C382.566,34.8405 381.588,37.1775 379.898,39.1095 C378.207,41.0375 375.867,42.7305 372.871,44.1845 L374.688,46.9995 C378.631,45.3205 382.004,42.8655 384.805,39.6195 C387.606,36.3735 389,33.1555 389,29.9645 C389,26.5365 388.191,23.8485 386.561,21.9065 C384.932,19.9655 382.598,19.0015 379.557,19.0015 C377.629,19.0015 375.955,19.6415 374.533,20.9265 C373.109,22.2115 372.398,23.7145 372.398,25.4295 C372.398,26.2535 372.522,27.0585 372.775,27.8345" fill="#000000" id="quote1"></path><g id="slices" transform="translate(47.000000, 9.000000)"></g></g></g></svg>